<svg width="16" height="16" viewBox="0 0 16 16" fill="none" xmlns="http://www.w3.org/2000/svg">
<g id="Icons">
<g id="SVGRepo_iconCarrier">
<path id="Vector" d="M12 5.5H2L3 3.2C3.3 2.5 4 2 4.8 2H9.15C9.95 2 10.65 2.5 11 3.2L12 5.5Z" stroke="#6A7798" stroke-miterlimit="10" stroke-linecap="round" stroke-linejoin="round"/>
<path id="Vector_2" d="M4 10.5H1V11.5C1 12.05 1.45 12.5 2 12.5H3C3.55 12.5 4 12.05 4 11.5V10.5Z" stroke="#6A7798" stroke-miterlimit="10" stroke-linecap="round" stroke-linejoin="round"/>
<path id="Vector_3" d="M0.5 5H2.2" stroke="#6A7798" stroke-miterlimit="10" stroke-linecap="round" stroke-linejoin="round"/>
<path id="Vector_4" d="M12 5H13.5" stroke="#6A7798" stroke-miterlimit="10" stroke-linecap="round" stroke-linejoin="round"/>
<path id="Vector_5" d="M2 8H3.5" stroke="#6A7798" stroke-miterlimit="10" stroke-linecap="round" stroke-linejoin="round"/>
<path id="Vector_6" d="M12 14C13.933 14 15.5 12.433 15.5 10.5C15.5 8.567 13.933 7 12 7C10.067 7 8.5 8.567 8.5 10.5C8.5 12.433 10.067 14 12 14Z" stroke="#6A7798" stroke-miterlimit="10" stroke-linecap="round" stroke-linejoin="round"/>
<path id="Vector_7" d="M12 9V12" stroke="#6A7798" stroke-miterlimit="10" stroke-linecap="round" stroke-linejoin="round"/>
<path id="Vector_8" d="M10.5 10.5H13.5" stroke="#6A7798" stroke-miterlimit="10" stroke-linecap="round" stroke-linejoin="round"/>
<path id="Vector_9" d="M8.8 9.05C8.65 8.7 8.3 8.5 7.9 8.5H6.15C5.75 8.5 5.4 8.7 5.25 9.05L4.5 10.5" stroke="#6A7798" stroke-miterlimit="10" stroke-linecap="round" stroke-linejoin="round"/>
<path id="Vector_10" d="M8.5 10.5H1.5C0.95 10.5 0.5 10.05 0.5 9.5V7.5C0.5 6.4 1.4 5.5 2.5 5.5H11.5C12.55 5.5 13.4 6.3 13.5 7.35" stroke="#6A7798" stroke-miterlimit="10" stroke-linecap="round" stroke-linejoin="round"/>
</g>
</g>
</svg>
