<svg width="15" height="15" viewBox="0 0 15 15" fill="none" xmlns="http://www.w3.org/2000/svg">
<g id="Icons">
<g id="SVGRepo_iconCarrier">
<path id="Vector" d="M12.6562 10.7812H2.34375C1.82812 10.7812 1.40625 10.3594 1.40625 9.84375V7.96875C1.40625 6.9375 2.25 6.09375 3.28125 6.09375H11.7188C12.75 6.09375 13.5938 6.9375 13.5938 7.96875V9.84375C13.5938 10.3594 13.1719 10.7812 12.6562 10.7812Z" stroke="#2A363B" stroke-miterlimit="10" stroke-linecap="round" stroke-linejoin="round"/>
<path id="Vector_2" d="M12.1875 6.09375H2.8125L3.75 3.9375C4.03125 3.28125 4.6875 2.8125 5.4375 2.8125H9.51562C10.2656 2.8125 10.9219 3.28125 11.25 3.9375L12.1875 6.09375Z" stroke="#2A363B" stroke-miterlimit="10" stroke-linecap="round" stroke-linejoin="round"/>
<path id="Vector_3" d="M4.6875 10.7812H1.875V11.7188C1.875 12.2344 2.29687 12.6562 2.8125 12.6562H3.75C4.26563 12.6562 4.6875 12.2344 4.6875 11.7188V10.7812Z" stroke="#2A363B" stroke-miterlimit="10" stroke-linecap="round" stroke-linejoin="round"/>
<path id="Vector_4" d="M13.125 10.7812H10.3125V11.7188C10.3125 12.2344 10.7344 12.6562 11.25 12.6562H12.1875C12.7031 12.6562 13.125 12.2344 13.125 11.7188V10.7812Z" stroke="#2A363B" stroke-miterlimit="10" stroke-linecap="round" stroke-linejoin="round"/>
<path id="Vector_5" d="M1.40625 5.625H3" stroke="#2A363B" stroke-miterlimit="10" stroke-linecap="round" stroke-linejoin="round"/>
<path id="Vector_6" d="M12.1875 5.625H13.5938" stroke="#2A363B" stroke-miterlimit="10" stroke-linecap="round" stroke-linejoin="round"/>
<path id="Vector_7" d="M9.84375 10.7812H5.15625L5.8125 9.42188C5.95312 9.09375 6.28125 8.90625 6.65625 8.90625H8.29688C8.67188 8.90625 9 9.09375 9.14062 9.42188L9.84375 10.7812Z" stroke="#2A363B" stroke-miterlimit="10" stroke-linecap="round" stroke-linejoin="round"/>
<path id="Vector_8" d="M2.8125 8.4375H4.21875" stroke="#2A363B" stroke-miterlimit="10" stroke-linecap="round" stroke-linejoin="round"/>
<path id="Vector_9" d="M10.7812 8.4375H12.1875" stroke="#2A363B" stroke-miterlimit="10" stroke-linecap="round" stroke-linejoin="round"/>
</g>
</g>
</svg>
