<svg width="50" height="50" viewBox="0 0 50 50" fill="none" xmlns="http://www.w3.org/2000/svg">
<g id="Capa_1" clip-path="url(#clip0_549_23275)">
<g id="SVGRepo_iconCarrier">
<g id="Group">
<path id="Vector" d="M29.8865 40.4223C32.2183 40.4223 34.1152 38.5253 34.1152 36.1936C34.1152 33.8619 32.2183 31.9648 29.8865 31.9648C27.5546 31.9648 25.6577 33.8619 25.6577 36.1936C25.6577 38.5253 27.5546 40.4223 29.8865 40.4223ZM29.8865 34.0103C31.0903 34.0103 32.0698 34.9897 32.0698 36.1936C32.0698 37.3975 31.0903 38.3769 29.8865 38.3769C28.6826 38.3769 27.7032 37.3975 27.7032 36.1936C27.7032 34.9897 28.6826 34.0103 29.8865 34.0103Z" fill="#7B7B7B"/>
<path id="Vector_2" d="M50 23.9207C50 23.3558 49.5421 22.898 48.9773 22.898H38.5567V19.8198L41.4081 17.6505C41.9686 17.2239 42.6648 16.9889 43.3682 16.9889H48.9773C49.5421 16.9889 50 16.5311 50 15.9662C50 15.4013 49.5421 14.9434 48.9773 14.9434H43.3682C42.2199 14.9434 41.0836 15.3268 40.1694 16.0228L31.055 22.957L30.8845 22.9872L27.3159 14.495C26.3167 12.1171 24.513 10.139 22.237 8.92525C21.7382 8.65935 21.119 8.84798 20.8533 9.3465C20.5875 9.84491 20.776 10.4643 21.2744 10.7301C23.1368 11.7233 24.6126 13.3417 25.4302 15.2874L28.8198 23.3536L19.0218 25.0921C17.5911 25.3451 16.3172 26.1905 15.5261 27.4122L14.9095 28.3661C14.2253 29.4229 13.8635 30.6473 13.8635 31.9072C13.8635 32.8321 14.0556 33.7303 14.4352 34.5788C14.8148 35.4228 15.3582 36.1631 16.0515 36.7799L16.8828 37.5182C17.9828 38.4959 19.399 39.0345 20.8703 39.0345H23.3164C24.4181 41.5724 26.9477 43.3527 29.8861 43.3527C32.8245 43.3527 35.3542 41.5724 36.4559 39.0345H48.9773C49.5421 39.0345 50 38.5766 50 38.0117C50 37.4469 49.5421 36.989 48.9773 36.989H37.0002C37.0292 36.7277 37.0454 36.4625 37.0454 36.1936C37.0454 35.8502 37.0197 35.5129 36.9727 35.1822H48.9773C49.5421 35.1822 50 34.7244 50 34.1595C50 33.5946 49.5421 33.1367 48.9773 33.1367H36.3584C35.2095 30.7142 32.7408 29.0345 29.8864 29.0345C27.0319 29.0345 24.5632 30.7142 23.4143 33.1367H16.082C15.9857 32.8 15.9293 32.4545 15.9142 32.1026H18.804C20.09 32.1026 21.1364 31.0563 21.1364 29.7703C21.1364 28.4842 20.09 27.4379 18.804 27.4379H18.4249C18.7213 27.279 19.0427 27.1656 19.3788 27.1063L31.5674 24.9434H48.9773C49.5421 24.9434 50 24.4856 50 23.9207ZM29.8864 31.0798C32.706 31.0798 35 33.3738 35 36.1934C35 39.0131 32.706 41.3071 29.8864 41.3071C27.0667 41.3071 24.7727 39.0131 24.7727 36.1934C24.7727 33.3738 27.0667 31.0798 29.8864 31.0798ZM22.7725 36.9889H20.8705C19.9006 36.9889 18.967 36.6339 18.2415 35.9889L17.4105 35.2509C17.3852 35.2286 17.3616 35.2049 17.3369 35.1821H22.8C22.7531 35.5127 22.7273 35.85 22.7273 36.1934C22.7273 36.4624 22.7435 36.7275 22.7725 36.9889ZM19.0909 29.7701C19.0909 29.9283 18.9622 30.0571 18.804 30.0571H16.3101C16.4001 29.8595 16.5044 29.6677 16.6234 29.4832H18.804C18.9622 29.4832 19.0909 29.612 19.0909 29.7701ZM36.5112 22.898H34.5107L36.5112 21.3759V22.898Z" fill="#7B7B7B"/>
<path id="Vector_3" d="M45.9092 26.7617C45.3443 26.7617 44.8865 27.2196 44.8865 27.7844C44.8865 28.3493 45.3443 28.8072 45.9092 28.8072H48.6365C49.2014 28.8072 49.6592 28.3493 49.6592 27.7844C49.6592 27.2196 49.2014 26.7617 48.6365 26.7617H45.9092Z" fill="#7B7B7B"/>
<path id="Vector_4" d="M16.0223 23.6859C16.6687 24.0601 17.4088 24.262 18.1818 24.262C20.5628 24.262 22.4999 22.3249 22.4999 19.9439C22.4999 18.3209 21.5922 16.8726 20.2202 16.1368C20.4754 15.4466 20.6077 14.7131 20.6077 13.9688C20.6077 10.5225 17.8039 7.71875 14.3577 7.71875C10.9114 7.71875 8.10767 10.5225 8.10767 13.9688C8.10767 13.9802 8.10767 13.9916 8.10778 14.0031C5.21676 14.8172 3.13892 17.4849 3.13892 20.5653C3.13892 24.3249 6.19755 27.3835 9.9571 27.3835C12.5607 27.3834 14.8763 25.9212 16.0223 23.6859ZM9.95721 25.338C7.32551 25.338 5.18448 23.1969 5.18448 20.5652C5.18448 18.372 6.68835 16.478 8.76551 15.9441C8.95028 15.8966 9.75551 15.7925 9.95721 15.7925C11.3865 15.7925 12.7288 16.4255 13.6398 17.529C13.842 17.774 14.1345 17.9007 14.429 17.9007C14.6583 17.9007 14.889 17.824 15.0796 17.6666C15.5152 17.307 15.5768 16.6624 15.2172 16.2268C13.9593 14.703 12.1246 13.8101 10.1587 13.7526C10.2715 11.5342 12.1118 9.7642 14.3578 9.7642C16.6761 9.7642 18.5623 11.6503 18.5623 13.9688C18.5623 14.7489 18.3468 15.5107 17.9389 16.1719C17.7624 16.458 17.7378 16.8124 17.873 17.12C18.008 17.4277 18.2857 17.6493 18.6157 17.713C19.6811 17.9185 20.4545 18.8568 20.4545 19.9439C20.4545 21.197 19.4349 22.2166 18.1818 22.2166C17.4765 22.2166 16.8228 21.8965 16.388 21.3382C16.1476 21.0293 15.7514 20.885 15.3688 20.9661C14.9858 21.0474 14.6829 21.3401 14.5886 21.72C14.0594 23.8502 12.1549 25.338 9.95721 25.338Z" fill="#7B7B7B"/>
<path id="Vector_5" d="M6.70455 10.0007C6.70455 8.15219 5.2008 6.64844 3.35227 6.64844C1.50375 6.64844 0 8.15219 0 10.0007C0 11.8492 1.50375 13.353 3.35227 13.353C5.2008 13.353 6.70455 11.8492 6.70455 10.0007ZM2.04545 10.0007C2.04545 9.28014 2.6317 8.69389 3.35227 8.69389C4.07284 8.69389 4.65909 9.28014 4.65909 10.0007C4.65909 10.7213 4.07284 11.3075 3.35227 11.3075C2.6317 11.3075 2.04545 10.7213 2.04545 10.0007Z" fill="#7B7B7B"/>
</g>
</g>
</g>
<defs>
<clipPath id="clip0_549_23275">
<rect width="50" height="50" fill="white"/>
</clipPath>
</defs>
</svg>
