<svg width="25" height="24" viewBox="0 0 25 24" fill="none" xmlns="http://www.w3.org/2000/svg">
<g id="Frame">
<g id="SVGRepo_iconCarrier">
<g id="Vector">
<path d="M20.5 10L19.0145 17.4276C18.8312 18.3439 18.7396 18.8021 18.5004 19.1448C18.2894 19.447 17.999 19.685 17.6613 19.8326C17.2783 20 16.8111 20 15.8766 20H9.12337C8.1889 20 7.72166 20 7.33869 19.8326C7.00097 19.685 6.7106 19.447 6.49964 19.1448C6.26041 18.8021 6.16878 18.3439 5.98551 17.4276L4.5 10M3.5 10H21.5H3.5ZM8.5 13V13.01V13ZM16.5 13V13.01V13ZM6.5 10L9.5 4L6.5 10ZM18.5 10L15.5 4L18.5 10Z" fill="#E84D0F"/>
<path d="M20.5 10L19.0145 17.4276C18.8312 18.3439 18.7396 18.8021 18.5004 19.1448C18.2894 19.447 17.999 19.685 17.6613 19.8326C17.2783 20 16.8111 20 15.8766 20H9.12337C8.1889 20 7.72166 20 7.33869 19.8326C7.00097 19.685 6.7106 19.447 6.49964 19.1448C6.26041 18.8021 6.16878 18.3439 5.98551 17.4276L4.5 10M3.5 10H21.5M8.5 13V13.01M16.5 13V13.01M6.5 10L9.5 4M18.5 10L15.5 4" stroke="#E84D0F" stroke-width="1.5" stroke-linecap="round" stroke-linejoin="round"/>
</g>
</g>
<circle id="Ellipse 47" cx="16.5" cy="13" r="0.75" fill="white"/>
<circle id="Ellipse 48" cx="8.5" cy="13" r="0.75" fill="white"/>
</g>
</svg>
