<svg width="14" height="14" viewBox="0 0 14 14" fill="none" xmlns="http://www.w3.org/2000/svg">
<g id="Frame" clip-path="url(#clip0_351_397)">
<g id="SVGRepo_iconCarrier">
<path id="Vector" d="M9.91699 5.83268H11.0837C12.2503 5.83268 12.8337 5.24935 12.8337 4.08268V2.91602C12.8337 1.74935 12.2503 1.16602 11.0837 1.16602H9.91699C8.75033 1.16602 8.16699 1.74935 8.16699 2.91602V4.08268C8.16699 5.24935 8.75033 5.83268 9.91699 5.83268Z" stroke="#2A363B" stroke-miterlimit="10" stroke-linecap="round" stroke-linejoin="round"/>
<path id="Vector_2" d="M2.91699 12.8327H4.08366C5.25032 12.8327 5.83366 12.2493 5.83366 11.0827V9.91602C5.83366 8.74935 5.25032 8.16602 4.08366 8.16602H2.91699C1.75033 8.16602 1.16699 8.74935 1.16699 9.91602V11.0827C1.16699 12.2493 1.75033 12.8327 2.91699 12.8327Z" stroke="#2A363B" stroke-miterlimit="10" stroke-linecap="round" stroke-linejoin="round"/>
<path id="Vector_3" d="M3.50032 5.83268C4.78899 5.83268 5.83366 4.78801 5.83366 3.49935C5.83366 2.21068 4.78899 1.16602 3.50032 1.16602C2.21166 1.16602 1.16699 2.21068 1.16699 3.49935C1.16699 4.78801 2.21166 5.83268 3.50032 5.83268Z" stroke="#2A363B" stroke-miterlimit="10" stroke-linecap="round" stroke-linejoin="round"/>
<path id="Vector_4" d="M10.5003 12.8327C11.789 12.8327 12.8337 11.788 12.8337 10.4993C12.8337 9.21071 11.789 8.16602 10.5003 8.16602C9.21168 8.16602 8.16699 9.21071 8.16699 10.4993C8.16699 11.788 9.21168 12.8327 10.5003 12.8327Z" stroke="#2A363B" stroke-miterlimit="10" stroke-linecap="round" stroke-linejoin="round"/>
</g>
</g>
<defs>
<clipPath id="clip0_351_397">
<rect width="14" height="14" fill="white"/>
</clipPath>
</defs>
</svg>
