<svg width="24" height="24" viewBox="0 0 24 24" fill="none" xmlns="http://www.w3.org/2000/svg">
<g id="Frame">
<g id="SVGRepo_iconCarrier">
<path id="Vector" fill-rule="evenodd" clip-rule="evenodd" d="M19.2071 6.20643C19.3892 6.01783 19.49 5.76523 19.4878 5.50303C19.4855 5.24083 19.3803 4.99002 19.1949 4.80461C19.0095 4.6192 18.7587 4.51403 18.4965 4.51176C18.2343 4.50948 17.9817 4.61027 17.7931 4.79243L12.0001 10.5854L6.20708 4.79243C6.01848 4.61027 5.76588 4.50948 5.50368 4.51176C5.24148 4.51403 4.99067 4.6192 4.80526 4.80461C4.61985 4.99002 4.51469 5.24083 4.51241 5.50303C4.51013 5.76523 4.61092 6.01783 4.79308 6.20643L10.5861 11.9994L4.79308 17.7924C4.69757 17.8847 4.62139 17.995 4.56898 18.117C4.51657 18.239 4.48898 18.3703 4.48783 18.503C4.48668 18.6358 4.51198 18.7675 4.56226 18.8904C4.61254 19.0133 4.68679 19.1249 4.78069 19.2188C4.87458 19.3127 4.98623 19.387 5.10913 19.4373C5.23202 19.4875 5.3637 19.5128 5.49648 19.5117C5.62926 19.5105 5.76048 19.4829 5.88249 19.4305C6.00449 19.3781 6.11483 19.3019 6.20708 19.2064L12.0001 13.4134L17.7931 19.2064C17.9817 19.3886 18.2343 19.4894 18.4965 19.4871C18.7587 19.4848 19.0095 19.3797 19.1949 19.1942C19.3803 19.0088 19.4855 18.758 19.4878 18.4958C19.49 18.2336 19.3892 17.981 19.2071 17.7924L13.4141 11.9994L19.2071 6.20643Z" fill="#00142A"/>
</g>
</g>
</svg>
