<svg width="16" height="16" viewBox="0 0 16 16" fill="none" xmlns="http://www.w3.org/2000/svg">
<g id="Frame">
<g id="SVGRepo_iconCarrier">
<path id="Vector" fill-rule="evenodd" clip-rule="evenodd" d="M10 0.833985H7.29573C6.07055 0.833971 5.10013 0.833965 4.34065 0.936078C3.55904 1.04116 2.92641 1.26257 2.42749 1.76148C1.92859 2.26039 1.70717 2.89302 1.60209 3.67464C1.49998 4.43411 1.49999 5.40453 1.5 6.6297V10.6673C1.5 11.9154 2.4147 12.95 3.61034 13.1371C3.70232 13.6464 3.87835 14.0812 4.23223 14.4351C4.63351 14.8364 5.13876 15.009 5.73883 15.0896C6.31681 15.1673 7.05167 15.1673 7.9634 15.1673H10.0366C10.9483 15.1673 11.6832 15.1673 12.2612 15.0896C12.8613 15.009 13.3665 14.8364 13.7678 14.4351C14.1691 14.0338 14.3417 13.5286 14.4223 12.9285C14.5 12.3505 14.5 11.6156 14.5 10.7039V7.29738C14.5 6.38568 14.5 5.6508 14.4223 5.07282C14.3417 4.47274 14.1691 3.9675 13.7678 3.56622C13.4139 3.21234 12.9791 3.0363 12.4698 2.94432C12.2827 1.74868 11.2481 0.833985 10 0.833985ZM11.4195 2.8481C11.2177 2.25814 10.6584 1.83398 10 1.83398H7.33333C6.06212 1.83398 5.15901 1.83504 4.4739 1.92716C3.80317 2.01733 3.41674 2.18644 3.1346 2.46858C2.85246 2.75072 2.68335 3.13716 2.59317 3.80788C2.50106 4.49299 2.5 5.3961 2.5 6.66732V10.6673C2.5 11.3257 2.92416 11.885 3.51411 12.0868C3.49999 11.6802 3.49999 11.2204 3.5 10.7039V7.29738C3.49999 6.38568 3.49997 5.6508 3.57768 5.07282C3.65836 4.47274 3.83095 3.9675 4.23223 3.56622C4.63351 3.16494 5.13876 2.99234 5.73883 2.91166C6.31681 2.83396 7.05167 2.83397 7.9634 2.83398H10.0366C10.5531 2.83398 11.0129 2.83397 11.4195 2.8481ZM4.93934 4.27332C5.12385 4.08882 5.3829 3.96852 5.87208 3.90275C6.37565 3.83504 7.04307 3.83398 8 3.83398H10C10.9569 3.83398 11.6243 3.83504 12.1279 3.90275C12.6171 3.96852 12.8761 4.08882 13.0607 4.27332C13.2452 4.45783 13.3655 4.71688 13.4313 5.20606C13.4989 5.70963 13.5 6.37704 13.5 7.33398V10.6673C13.5 11.6242 13.4989 12.2916 13.4313 12.7952C13.3655 13.2844 13.2452 13.5434 13.0607 13.728C12.8761 13.9125 12.6171 14.0328 12.1279 14.0986C11.6243 14.1662 10.9569 14.1673 10 14.1673H8C7.04307 14.1673 6.37565 14.1662 5.87208 14.0986C5.3829 14.0328 5.12385 13.9125 4.93934 13.728C4.75483 13.5434 4.63453 13.2844 4.56877 12.7952C4.50106 12.2916 4.5 11.6242 4.5 10.6673V7.33398C4.5 6.37704 4.50106 5.70963 4.56877 5.20606C4.63453 4.71688 4.75483 4.45783 4.93934 4.27332Z" fill="#6A7798"/>
</g>
</g>
</svg>
