<svg width="12" height="13" viewBox="0 0 12 13" fill="none" xmlns="http://www.w3.org/2000/svg">
<g id="Frame">
<g id="SVGRepo_iconCarrier">
<path id="Vector" fill-rule="evenodd" clip-rule="evenodd" d="M5.61915 1.89944C5.31215 1.94002 4.93301 2.0271 4.3937 2.15156L3.77961 2.29327C3.3241 2.39839 3.01041 2.47126 2.77081 2.55349C2.53949 2.63288 2.40864 2.71114 2.30989 2.80989C2.21114 2.90864 2.13288 3.03949 2.05349 3.27081C1.97126 3.51041 1.89839 3.8241 1.79327 4.27961L1.65156 4.8937C1.5271 5.43301 1.44002 5.81215 1.39944 6.11915C1.35991 6.41825 1.36903 6.62065 1.42179 6.8046C1.47456 6.9886 1.57409 7.16505 1.76613 7.3977C1.96326 7.63655 2.23803 7.9119 2.62941 8.3033L3.54422 9.2181C4.22397 9.89785 4.70766 10.3804 5.1235 10.6977C5.5307 11.0083 5.82845 11.125 6.13115 11.125C6.4339 11.125 6.73165 11.0083 7.1388 10.6977C7.55465 10.3804 8.03835 9.89785 8.7181 9.2181C9.39785 8.53835 9.8804 8.05465 10.1977 7.6388C10.5083 7.23165 10.625 6.9339 10.625 6.63115C10.625 6.32845 10.5083 6.0307 10.1977 5.6235C9.8804 5.20766 9.39785 4.72397 8.7181 4.04422L7.8033 3.12941C7.4119 2.73803 7.13655 2.46326 6.8977 2.26613C6.66505 2.07409 6.4886 1.97456 6.3046 1.92179C6.12065 1.86903 5.91825 1.85991 5.61915 1.89944ZM5.5209 1.15591C5.87955 1.10851 6.19405 1.10985 6.51135 1.20085C6.8287 1.29186 7.0961 1.45741 7.3751 1.68769C7.64485 1.91031 7.94525 2.2107 8.3205 2.58599L9.2684 3.53387C9.9237 4.18917 10.4425 4.70799 10.7939 5.16857C11.1555 5.64245 11.375 6.0985 11.375 6.63115C11.375 7.1638 11.1555 7.61985 10.7939 8.09375C10.4425 8.55435 9.9237 9.07315 9.2684 9.72845L9.22845 9.7684C8.57315 10.4237 8.05435 10.9425 7.59375 11.2939C7.11985 11.6555 6.6638 11.875 6.13115 11.875C5.5985 11.875 5.14245 11.6555 4.66857 11.2939C4.20799 10.9425 3.68916 10.4237 3.03385 9.7684L2.08598 8.8205C1.7107 8.44525 1.41031 8.14485 1.18769 7.8751C0.95741 7.5961 0.79186 7.3287 0.70085 7.01135C0.609845 6.69405 0.608505 6.37955 0.655905 6.0209C0.701725 5.6742 0.797255 5.26024 0.916595 4.74311L1.06693 4.09167C1.16651 3.66011 1.24772 3.30819 1.34411 3.02734C1.44478 2.73403 1.57157 2.48755 1.77956 2.27956C1.98755 2.07157 2.23403 1.94478 2.52734 1.84411C2.80819 1.74772 3.16011 1.66651 3.59167 1.56693L4.24311 1.4166C4.76023 1.29726 5.1742 1.20173 5.5209 1.15591ZM4.74547 4.49757C4.50139 4.25349 4.10566 4.25349 3.86158 4.49757C3.61751 4.74165 3.61751 5.13738 3.86158 5.38145C4.10566 5.62555 4.50139 5.62555 4.74547 5.38145C4.98954 5.13738 4.98954 4.74165 4.74547 4.49757ZM3.33125 3.96724C3.86822 3.43027 4.73883 3.43027 5.2758 3.96724C5.81275 4.50421 5.81275 5.37481 5.2758 5.9118C4.73883 6.44875 3.86822 6.44875 3.33125 5.9118C2.79428 5.37481 2.79428 4.50421 3.33125 3.96724ZM9.52555 5.9951C9.672 6.14155 9.672 6.37895 9.52555 6.5254L6.03605 10.015C5.8896 10.1615 5.65215 10.1615 5.5057 10.015C5.35925 9.8686 5.35925 9.63115 5.5057 9.4847L8.9952 5.9951C9.14165 5.84865 9.3791 5.84865 9.52555 5.9951Z" fill="#FF0000"/>
</g>
</g>
</svg>
