<svg width="14" height="14" viewBox="0 0 14 14" fill="none" xmlns="http://www.w3.org/2000/svg">
<g id="Frame">
<g id="SVGRepo_iconCarrier">
<g id="Layer 3">
<path id="Vector" d="M12.6267 2.88978L8.94419 5.35515V3.21271C8.94431 3.13871 8.92333 3.06622 8.8837 3.00373C8.84408 2.94124 8.78746 2.89134 8.72048 2.85989C8.6535 2.82845 8.57894 2.81675 8.50555 2.82618C8.43216 2.83561 8.36298 2.86577 8.30612 2.91313L5.24172 5.44475H3.88864V1.79716C3.89083 1.70722 3.8618 1.6193 3.80646 1.54836C3.75113 1.47742 3.67293 1.42785 3.58516 1.40809L2.02961 1.05809C1.97219 1.0452 1.91259 1.04551 1.85531 1.05899C1.79803 1.07247 1.74455 1.09877 1.6989 1.1359C1.65219 1.17374 1.61488 1.22189 1.5899 1.27657C1.56493 1.33124 1.55296 1.39096 1.55494 1.45104V5.44475H1.16623C1.06305 5.44475 0.964084 5.48574 0.891119 5.55871C0.818155 5.63167 0.777164 5.73063 0.777164 5.83382V12.056C0.777164 12.1592 0.818155 12.2582 0.891119 12.3312C0.964084 12.4041 1.06305 12.4451 1.16623 12.4451H12.8329C12.9361 12.4451 13.0351 12.4041 13.108 12.3312C13.181 12.2582 13.222 12.1592 13.222 12.056V3.21271C13.2225 3.14167 13.2035 3.07184 13.1672 3.01079C13.1308 2.94975 13.0785 2.89983 13.0158 2.86644C12.9546 2.83577 12.8864 2.82178 12.8181 2.82587C12.7498 2.82997 12.6838 2.85202 12.6267 2.88978L12.6268 2.88993L12.6267 2.88978ZM2.33308 5.44475V1.94515L3.1105 2.11619V5.44475H2.33308ZM5.6269 6.1334L8.16605 4.03365V6.0866C8.16595 6.15728 8.1851 6.22665 8.22145 6.28727C8.2578 6.34789 8.30997 6.39746 8.37237 6.43066C8.43477 6.46386 8.50504 6.47944 8.57562 6.47571C8.64621 6.47199 8.71444 6.44911 8.773 6.40952L12.4438 3.94416V11.667H1.5553V6.22289H5.3779C5.46881 6.22307 5.55691 6.19141 5.6269 6.1334Z" fill="#2A363B" stroke="#2A363B" stroke-width="0.00036"/>
<path id="Vector_2" d="M5.44412 6.99591H2.33301V6.99609H2.33283V7.77387H2.33301V7.77405H5.44412V7.77387H5.4443V6.99609H5.44412V6.99591Z" fill="#2A363B" stroke="#2A363B" stroke-width="0.00036"/>
<path id="Vector_3" d="M5.44412 8.55255H2.33301V8.55273H2.33283V9.33051H2.33301V9.33069H5.44412V9.33051H5.4443V8.55273H5.44412V8.55255Z" fill="#2A363B" stroke="#2A363B" stroke-width="0.00036"/>
<path id="Vector_4" d="M5.44412 10.1072H2.33301V10.1074H2.33283V10.8852H2.33301V10.8854H5.44412V10.8852H5.4443V10.1074H5.44412V10.1072Z" fill="#2A363B" stroke="#2A363B" stroke-width="0.00036"/>
<path id="Vector_5" d="M8.16645 7.38459H7.38867V7.38477H7.38849V8.55143H7.38867V8.55161H8.16645V8.55143H8.16663V7.38477H8.16645V7.38459Z" fill="#2A363B" stroke="#2A363B" stroke-width="0.00036"/>
<path id="Vector_6" d="M8.16645 9.71857H7.38867V9.71875H7.38849V10.8854H7.38867V10.8856H8.16645V10.8854H8.16663V9.71875H8.16645V9.71857Z" fill="#2A363B" stroke="#2A363B" stroke-width="0.00036"/>
<path id="Vector_7" d="M9.72211 7.38459H8.94434V7.38477H8.94416V8.55143H8.94434V8.55161H9.72211V8.55143H9.72229V7.38477H9.72211V7.38459Z" fill="#2A363B" stroke="#2A363B" stroke-width="0.00036"/>
<path id="Vector_8" d="M9.72211 9.71857H8.94434V9.71875H8.94416V10.8854H8.94434V10.8856H9.72211V10.8854H9.72229V9.71875H9.72211V9.71857Z" fill="#2A363B" stroke="#2A363B" stroke-width="0.00036"/>
<path id="Vector_9" d="M11.2778 7.38459H10.5V7.38477H10.4998V8.55143H10.5V8.55161H11.2778V8.55143H11.278V7.38477H11.2778V7.38459Z" fill="#2A363B" stroke="#2A363B" stroke-width="0.00036"/>
<path id="Vector_10" d="M11.2778 9.71857H10.5V9.71875H10.4998V10.8854H10.5V10.8856H11.2778V10.8854H11.278V9.71875H11.2778V9.71857Z" fill="#2A363B" stroke="#2A363B" stroke-width="0.00036"/>
</g>
</g>
</g>
</svg>
