<svg width="16" height="16" viewBox="0 0 16 16" fill="none" xmlns="http://www.w3.org/2000/svg">
<g id="Frame" clip-path="url(#clip0_660_24255)">
<g id="SVGRepo_iconCarrier">
<path id="Vector" d="M8 5.16797C7.5858 5.16797 7.25 5.50376 7.25 5.91797C7.25 6.19411 7.02613 6.41797 6.75 6.41797C6.47386 6.41797 6.25 6.19411 6.25 5.91797C6.25 4.95147 7.03353 4.16797 8 4.16797C8.96647 4.16797 9.75 4.95147 9.75 5.91797C9.75 6.5602 9.40373 7.12104 8.8902 7.4249C8.759 7.5025 8.65073 7.58724 8.5802 7.67037C8.51167 7.75104 8.5 7.8037 8.5 7.83464V8.66797C8.5 8.9441 8.27613 9.16797 8 9.16797C7.72387 9.16797 7.5 8.9441 7.5 8.66797V7.83464C7.5 7.49737 7.64767 7.2237 7.81773 7.0233C7.98573 6.8253 8.19527 6.6741 8.381 6.56423C8.60293 6.4329 8.75 6.19234 8.75 5.91797C8.75 5.50376 8.4142 5.16797 8 5.16797Z" fill="#6A7798"/>
<path id="Vector_2" d="M7.99998 11.3333C8.36818 11.3333 8.66665 11.0349 8.66665 10.6667C8.66665 10.2985 8.36818 10 7.99998 10C7.63178 10 7.33331 10.2985 7.33331 10.6667C7.33331 11.0349 7.63178 11.3333 7.99998 11.3333Z" fill="#6A7798"/>
<path id="Vector_3" fill-rule="evenodd" clip-rule="evenodd" d="M7.96171 0.833984H8.03824C9.57718 0.833978 10.7832 0.833971 11.7242 0.960484C12.6873 1.08998 13.4474 1.3602 14.0439 1.95674C14.6404 2.55328 14.9106 3.3133 15.0402 4.27646C15.1666 5.21744 15.1666 6.42347 15.1666 7.96238V8.03892C15.1666 9.57785 15.1666 10.7838 15.0402 11.7248C14.9106 12.688 14.6404 13.448 14.0439 14.0446C13.4474 14.6411 12.6873 14.9113 11.7242 15.0408C10.7832 15.1673 9.57718 15.1673 8.03824 15.1673H7.96171C6.4228 15.1673 5.21677 15.1673 4.27579 15.0408C3.31263 14.9113 2.55261 14.6411 1.95607 14.0446C1.35953 13.448 1.08931 12.688 0.959813 11.7248C0.8333 10.7838 0.833306 9.57785 0.833313 8.03892V7.96238C0.833306 6.42348 0.8333 5.21744 0.959813 4.27646C1.08931 3.3133 1.35953 2.55328 1.95607 1.95674C2.55261 1.3602 3.31263 1.08998 4.27579 0.960484C5.21677 0.833971 6.42281 0.833978 7.96171 0.833984ZM4.40903 1.95156C3.55676 2.06615 3.04295 2.28408 2.66318 2.66385C2.28341 3.04362 2.06548 3.55743 1.95089 4.4097C1.83437 5.27636 1.83331 6.41516 1.83331 8.00065C1.83331 9.58612 1.83437 10.7249 1.95089 11.5916C2.06548 12.4438 2.28341 12.9576 2.66318 13.3374C3.04295 13.7172 3.55676 13.9352 4.40903 14.0497C5.27569 14.1662 6.41449 14.1673 7.99998 14.1673C9.58544 14.1673 10.7242 14.1662 11.5909 14.0497C12.4432 13.9352 12.957 13.7172 13.3368 13.3374C13.7166 12.9576 13.9345 12.4438 14.049 11.5916C14.1656 10.7249 14.1666 9.58612 14.1666 8.00065C14.1666 6.41516 14.1656 5.27636 14.049 4.4097C13.9345 3.55743 13.7166 3.04362 13.3368 2.66385C12.957 2.28408 12.4432 2.06615 11.5909 1.95156C10.7242 1.83504 9.58544 1.83398 7.99998 1.83398C6.41449 1.83398 5.27569 1.83504 4.40903 1.95156Z" fill="#6A7798"/>
</g>
</g>
<defs>
<clipPath id="clip0_660_24255">
<rect width="16" height="16" fill="white"/>
</clipPath>
</defs>
</svg>
