<svg width="16" height="16" viewBox="0 0 16 16" fill="none" xmlns="http://www.w3.org/2000/svg">
<g id="Frame">
<g id="SVGRepo_iconCarrier">
<path id="Vector" fill-rule="evenodd" clip-rule="evenodd" d="M14.6668 8.00065C14.6668 11.6825 11.682 14.6673 8.00016 14.6673C4.31826 14.6673 1.3335 11.6825 1.3335 8.00065C1.3335 4.31875 4.31826 1.33398 8.00016 1.33398C11.682 1.33398 14.6668 4.31875 14.6668 8.00065ZM8.00016 11.834C8.2763 11.834 8.50016 11.6101 8.50016 11.334V7.33398C8.50016 7.05785 8.2763 6.83398 8.00016 6.83398C7.72403 6.83398 7.50016 7.05785 7.50016 7.33398V11.334C7.50016 11.6101 7.72403 11.834 8.00016 11.834ZM8.00016 4.66732C8.36836 4.66732 8.66683 4.9658 8.66683 5.33398C8.66683 5.70217 8.36836 6.00065 8.00016 6.00065C7.63196 6.00065 7.3335 5.70217 7.3335 5.33398C7.3335 4.9658 7.63196 4.66732 8.00016 4.66732Z" fill="#6A7798"/>
</g>
</g>
</svg>
