<svg width="24" height="24" viewBox="0 0 24 24" fill="none" xmlns="http://www.w3.org/2000/svg">
<g id="Frame">
<g id="SVGRepo_iconCarrier">
<g id="Vector">
<path d="M8 10.0002V20.0002ZM8 10.0002L4 10.0002V20.0002H8M8 10.0002L13.1956 3.93872C13.6886 3.36355 14.4642 3.11629 15.1992 3.30002L15.2467 3.31191C16.5885 3.64736 17.1929 5.21082 16.4258 6.3616L14 10.0002H18.5604C19.8225 10.0002 20.7691 11.1548 20.5216 12.3924L19.3216 18.3924C19.1346 19.3273 18.3138 20.0002 17.3604 20.0002H8" fill="#2A363B"/>
<path d="M8 10.0002V20.0002M8 10.0002L4 10.0002V20.0002H8M8 10.0002L13.1956 3.93872C13.6886 3.36355 14.4642 3.11629 15.1992 3.30002L15.2467 3.31191C16.5885 3.64736 17.1929 5.21082 16.4258 6.3616L14 10.0002H18.5604C19.8225 10.0002 20.7691 11.1548 20.5216 12.3924L19.3216 18.3924C19.1346 19.3273 18.3138 20.0002 17.3604 20.0002H8" stroke="#2A363B" stroke-linecap="round" stroke-linejoin="round"/>
</g>
</g>
</g>
</svg>
