<svg width="20" height="20" viewBox="0 0 20 20" fill="none" xmlns="http://www.w3.org/2000/svg">
<g id="Frame">
<g id="SVGRepo_iconCarrier">
<path id="Vector" d="M17.1824 7.24935C16.3157 3.39102 12.949 1.66602 9.99902 1.66602C9.99902 1.66602 9.99902 1.66602 9.99069 1.66602C7.049 1.66602 3.69066 3.39102 2.81567 7.24101C1.83233 11.541 4.46566 15.1827 6.849 17.4827C7.73233 18.3327 8.86569 18.7577 9.99902 18.7577C11.1324 18.7577 12.2657 18.3327 13.1407 17.4827C15.524 15.1827 18.1574 11.5493 17.1824 7.24935ZM12.2907 9.79101H10.624V11.4577C10.624 11.7993 10.3407 12.0827 9.99902 12.0827C9.65736 12.0827 9.37402 11.7993 9.37402 11.4577V9.79101H7.70733C7.36566 9.79101 7.08233 9.50768 7.08233 9.16601C7.08233 8.82435 7.36566 8.54102 7.70733 8.54102H9.37402V6.87435C9.37402 6.53268 9.65736 6.24935 9.99902 6.24935C10.3407 6.24935 10.624 6.53268 10.624 6.87435V8.54102H12.2907C12.6324 8.54102 12.9157 8.82435 12.9157 9.16601C12.9157 9.50768 12.6324 9.79101 12.2907 9.79101Z" fill="white"/>
</g>
</g>
</svg>
