<svg width="22" height="22" viewBox="0 0 22 22" fill="none" xmlns="http://www.w3.org/2000/svg">
<g id="Frame">
<g id="SVGRepo_iconCarrier">
<path id="Vector" d="M15.583 9.16731H17.4163C19.2497 9.16731 20.1663 8.25065 20.1663 6.41732V4.58398C20.1663 2.75065 19.2497 1.83398 17.4163 1.83398H15.583C13.7497 1.83398 12.833 2.75065 12.833 4.58398V6.41732C12.833 8.25065 13.7497 9.16731 15.583 9.16731Z" stroke="#6A7798" stroke-width="1.5" stroke-miterlimit="10" stroke-linecap="round" stroke-linejoin="round"/>
<path id="Vector_2" d="M4.58301 20.1673H6.41634C8.24967 20.1673 9.16634 19.2507 9.16634 17.4173V15.584C9.16634 13.7507 8.24967 12.834 6.41634 12.834H4.58301C2.74967 12.834 1.83301 13.7507 1.83301 15.584V17.4173C1.83301 19.2507 2.74967 20.1673 4.58301 20.1673Z" stroke="#6A7798" stroke-width="1.5" stroke-miterlimit="10" stroke-linecap="round" stroke-linejoin="round"/>
<path id="Vector_3" d="M5.49967 9.16732C7.52472 9.16732 9.16634 7.5257 9.16634 5.50065C9.16634 3.47561 7.52472 1.83398 5.49967 1.83398C3.47463 1.83398 1.83301 3.47561 1.83301 5.50065C1.83301 7.5257 3.47463 9.16732 5.49967 9.16732Z" stroke="#6A7798" stroke-width="1.5" stroke-miterlimit="10" stroke-linecap="round" stroke-linejoin="round"/>
<path id="Vector_4" d="M16.4997 20.1673C18.5247 20.1673 20.1663 18.5257 20.1663 16.5007C20.1663 14.4756 18.5247 12.834 16.4997 12.834C14.4747 12.834 12.833 14.4756 12.833 16.5007C12.833 18.5257 14.4747 20.1673 16.4997 20.1673Z" stroke="#6A7798" stroke-width="1.5" stroke-miterlimit="10" stroke-linecap="round" stroke-linejoin="round"/>
</g>
</g>
</svg>
