<svg width="16" height="16" viewBox="0 0 16 16" fill="none" xmlns="http://www.w3.org/2000/svg">
<g id="Glyph">
<g id="SVGRepo_iconCarrier">
<path id="XMLID_287_" d="M8 6.5C7.173 6.5 6.5 7.173 6.5 8C6.5 8.827 7.173 9.5 8 9.5C8.827 9.5 9.5 8.827 9.5 8C9.5 7.173 8.827 6.5 8 6.5Z" fill="#AAAAAA"/>
<path id="XMLID_289_" d="M3 6.5C2.173 6.5 1.5 7.173 1.5 8C1.5 8.827 2.173 9.5 3 9.5C3.827 9.5 4.5 8.827 4.5 8C4.5 7.173 3.827 6.5 3 6.5Z" fill="#AAAAAA"/>
<path id="XMLID_291_" d="M13 6.5C12.173 6.5 11.5 7.173 11.5 8C11.5 8.827 12.173 9.5 13 9.5C13.827 9.5 14.5 8.827 14.5 8C14.5 7.173 13.827 6.5 13 6.5Z" fill="#AAAAAA"/>
</g>
</g>
</svg>
