<svg width="18" height="18" viewBox="0 0 18 18" fill="none" xmlns="http://www.w3.org/2000/svg">
<g id="Frame" clip-path="url(#clip0_1152_21468)">
<g id="SVGRepo_iconCarrier">
<path id="Vector" d="M10.665 17.1271C7.80525 17.0499 7.5375 16.9846 6.4425 16.0996C5.766 15.5536 5.55975 15.3159 4.71675 14.1031C3.78975 12.7711 1.1355 8.87037 0.98175 8.61387C0.90675 8.49012 0.65475 8.09562 0.42225 7.73787C0.18975 7.38012 0 7.02162 0 6.94137C0 6.86112 0.45375 6.56262 1.00875 6.27688C1.881 5.82837 2.15625 5.75187 3.048 5.71137C4.0575 5.66562 4.0995 5.67612 5.06325 6.22812C6.02325 6.77712 6.07725 6.83637 7.21425 8.57562C7.72394 9.35193 8.22795 10.132 8.72625 10.9156C8.916 11.2209 9.213 11.5636 9.38625 11.6776C9.906 12.0181 10.1415 11.9101 12.9293 10.0531C14.2095 9.19962 15.3337 7.27287 15.7267 5.26062C15.8722 4.51287 15.9068 4.06062 15.8243 3.97812C15.6848 3.83787 15.0143 4.18062 13.1475 5.34762C10.458 7.02762 8.52675 8.19012 8.424 8.19012C8.274 8.19012 7.9185 7.63362 7.82175 7.24512C7.7505 6.96387 7.86375 6.85737 8.90025 6.22437C11.9317 4.37412 12.726 3.88437 13.2135 3.56937C15.186 2.29437 17.646 0.828125 17.8132 0.828125C18.0502 0.828125 18.0518 0.853625 17.874 1.76337C17.7983 2.15337 17.619 3.18087 17.4765 4.04937C16.9118 7.48437 16.1453 9.20337 14.5125 10.6944C13.899 11.2546 12.015 12.4936 10.9478 13.0374C10.0522 13.4949 8.98425 13.3786 8.29875 12.7509C8.12625 12.5934 7.3185 11.4511 6.504 10.2129C5.6895 8.97537 4.82175 7.80837 4.57575 7.62012C4.01025 7.18887 2.82825 7.01787 2.4375 7.31112C2.10975 7.55712 2.214 7.80687 3.2625 9.28962C3.678 9.87837 4.15575 10.5969 4.3245 10.8864C4.9395 11.9461 6.717 14.3506 7.2225 14.8066C8.01675 15.5244 8.757 15.6849 11.2695 15.6849C12.978 15.6849 13.4333 15.6474 13.4888 15.5034C13.527 15.4029 13.3478 14.9919 13.0905 14.5884C12.5303 13.7139 12.516 13.5519 12.9683 13.1964C13.6343 12.6729 13.734 12.7561 15.1823 15.0436C15.2565 15.1614 15.5445 15.6001 15.8228 16.0194C16.101 16.4394 16.3575 16.8571 16.3927 16.9486C16.4738 17.1594 14.3325 17.2261 10.665 17.1271Z" fill="#2A363B"/>
</g>
</g>
<defs>
<clipPath id="clip0_1152_21468">
<rect width="18" height="18" fill="white"/>
</clipPath>
</defs>
</svg>
