<svg width="16" height="16" viewBox="0 0 16 16" fill="none" xmlns="http://www.w3.org/2000/svg">
<g id="shopping-bag">
<path id="Vector" d="M4 1.33398L2 4.00065V13.334C2 13.6876 2.14048 14.0267 2.39052 14.2768C2.64057 14.5268 2.97971 14.6673 3.33333 14.6673H12.6667C13.0203 14.6673 13.3594 14.5268 13.6095 14.2768C13.8595 14.0267 14 13.6876 14 13.334V4.00065L12 1.33398H4Z" stroke="#6A7798" stroke-linecap="round" stroke-linejoin="round"/>
<path id="Vector_2" d="M2 4H14" stroke="#6A7798" stroke-linecap="round" stroke-linejoin="round"/>
<path id="Vector_3" d="M10.6666 6.66602C10.6666 7.37326 10.3857 8.05154 9.8856 8.55163C9.3855 9.05173 8.70722 9.33268 7.99998 9.33268C7.29274 9.33268 6.61446 9.05173 6.11436 8.55163C5.61426 8.05154 5.33331 7.37326 5.33331 6.66602" stroke="#6A7798" stroke-linecap="round" stroke-linejoin="round"/>
</g>
</svg>
