<svg width="24" height="24" viewBox="0 0 24 24" fill="none" xmlns="http://www.w3.org/2000/svg">
<g id="Frame">
<g id="SVGRepo_iconCarrier">
<g id="Vector">
<path d="M14 8V5V8ZM11 5H17H11ZM6 12H3H6ZM3 9V15V9ZM21 11V19V11ZM9 12H9.01H9ZM12 12H12.01H12ZM15 12H15.01H15ZM6 8V16H8L10 19H18V10L16 8H6Z" fill="#E84D0F"/>
<path d="M14 8V5M11 5H17M6 12H3M3 9V15M21 11V19M9 12H9.01M12 12H12.01M15 12H15.01M6 8V16H8L10 19H18V10L16 8H6Z" stroke="#E84D0F" stroke-width="2" stroke-linecap="round" stroke-linejoin="round"/>
</g>
<circle id="Ellipse 44" cx="15" cy="12" r="1" fill="white"/>
<circle id="Ellipse 45" cx="12" cy="12" r="1" fill="white"/>
<circle id="Ellipse 46" cx="9" cy="12" r="1" fill="white"/>
</g>
</g>
</svg>
