<svg width="21" height="21" viewBox="0 0 21 21" fill="none" xmlns="http://www.w3.org/2000/svg">
<g id="Layer_1">
<g id="SVGRepo_iconCarrier">
<g id="Group">
<g id="Group_2">
<g id="Group_3">
<path id="Vector" d="M10.4999 0C6.30971 0 3.1499 3.31029 3.1499 7.69999C3.1499 8.61874 3.86427 9.36633 4.76514 9.43634L9.45023 12.95H9.4499C9.25635 12.95 9.09992 13.1064 9.09992 13.3H7.3499C6.77101 13.3 6.2999 13.7711 6.2999 14.35V19.95C6.2999 20.5289 6.77101 21 7.3499 21H13.6499C14.2288 21 14.6999 20.5289 14.6999 19.95V14.35C14.6999 13.7711 14.2288 13.3 13.6499 13.3H11.8999C11.8999 13.1065 11.7435 12.95 11.5499 12.95H11.5496L16.2347 9.43638C17.1356 9.36637 17.8499 8.61878 17.8499 7.70003C17.8499 3.31029 14.6901 0 10.4999 0ZM11.4001 0.943605C11.4964 0.995408 11.5912 1.05316 11.684 1.12001C11.6934 1.12666 11.7025 1.1347 11.7116 1.14138C11.8016 1.20787 11.8898 1.28104 11.9762 1.36012C11.9874 1.37062 11.9993 1.38005 12.0105 1.39092C12.098 1.47316 12.1834 1.56278 12.2674 1.65691C12.2842 1.67545 12.301 1.69436 12.3174 1.71359C12.399 1.80846 12.4791 1.90821 12.5568 2.01284C12.5715 2.03245 12.5855 2.05308 12.5999 2.07305C12.68 2.18367 12.7585 2.29811 12.8341 2.41816C12.8372 2.42341 12.8404 2.42866 12.8435 2.43391C12.917 2.55187 12.988 2.67504 13.057 2.80071C13.0696 2.82347 13.0822 2.8455 13.0944 2.86826C13.1616 2.9932 13.226 3.12133 13.2887 3.25221C13.302 3.28055 13.3153 3.30857 13.3282 3.33691C13.3902 3.46992 13.4497 3.60466 13.5067 3.74222C13.5158 3.76462 13.5246 3.78738 13.5337 3.80978C13.5886 3.94521 13.6411 4.08241 13.6908 4.22104C13.696 4.23503 13.7013 4.24905 13.7065 4.26304C13.7577 4.40795 13.8056 4.55458 13.8515 4.70158C13.8606 4.73099 13.8697 4.76003 13.8788 4.78944C13.9222 4.93328 13.9628 5.07749 14.0006 5.22203C14.0083 5.25144 14.0156 5.28047 14.023 5.30951C14.0604 5.45861 14.0961 5.60737 14.1276 5.75539C14.1304 5.76975 14.1332 5.78411 14.136 5.79846C14.1661 5.943 14.1931 6.08651 14.2169 6.22933C14.2204 6.24894 14.2242 6.26887 14.2274 6.28884C14.2508 6.43408 14.2704 6.57796 14.2876 6.72004L14.297 6.80195C14.3124 6.9423 14.3247 7.0809 14.3334 7.2167C14.3348 7.23909 14.3355 7.26116 14.3369 7.28355C14.3446 7.4253 14.3498 7.56496 14.3498 7.70007C14.3498 8.27896 13.8787 8.75007 13.2998 8.75007C12.7209 8.75007 12.2498 8.27896 12.2498 7.70007C12.2498 7.69798 12.2498 7.68994 12.2495 7.678C12.2495 7.67275 12.2495 7.66713 12.2491 7.65979C12.2491 7.6465 12.2487 7.63005 12.2484 7.61045C12.2484 7.6045 12.2481 7.59995 12.2481 7.59363C12.2477 7.56632 12.247 7.53449 12.246 7.49667V7.49072C12.2449 7.44872 12.2435 7.40147 12.2421 7.34791V7.34266C12.2407 7.29611 12.2393 7.24467 12.2376 7.19041C12.2369 7.17466 12.2365 7.15891 12.2358 7.14279C12.2344 7.09484 12.2323 7.04411 12.2306 6.99091C12.2299 6.97516 12.2295 6.96011 12.2288 6.94366C12.226 6.87434 12.2232 6.80228 12.2201 6.72525V6.72488C12.2166 6.64683 12.2127 6.56422 12.2085 6.4792C12.2078 6.46308 12.2071 6.4463 12.206 6.42986C12.2029 6.36091 12.199 6.2902 12.1952 6.21776C12.1938 6.1943 12.1927 6.17121 12.1913 6.14775C12.1871 6.07532 12.1829 6.00112 12.1783 5.92516C12.177 5.90453 12.1759 5.88422 12.1745 5.86322C12.1685 5.76487 12.1619 5.66479 12.1549 5.56221C12.1545 5.56151 12.1545 5.56045 12.1545 5.55942C12.1475 5.46107 12.1402 5.36029 12.1325 5.25841C12.1304 5.23322 12.1286 5.20837 12.1265 5.18314C12.1202 5.10333 12.1135 5.02286 12.1066 4.94164C12.1041 4.91121 12.1013 4.88111 12.0989 4.85063C12.0905 4.7565 12.0817 4.662 12.0726 4.56643C12.0715 4.55417 12.0705 4.54195 12.0691 4.52968C12.0586 4.41906 12.0471 4.30779 12.0352 4.19614C12.0327 4.17478 12.0303 4.15345 12.0278 4.13208C12.0184 4.04389 12.0082 3.95534 11.9977 3.86679C11.9939 3.83422 11.9897 3.8017 11.9858 3.76913C11.9757 3.68829 11.9655 3.60708 11.9547 3.52624C11.9505 3.49543 11.9466 3.46463 11.9424 3.43383C11.9127 3.21542 11.8798 2.99914 11.8441 2.78738C11.8391 2.75764 11.8339 2.72856 11.8287 2.69883C11.8154 2.62287 11.8017 2.54764 11.7878 2.47308C11.7811 2.43912 11.7748 2.40553 11.7681 2.37193C11.7531 2.29528 11.7377 2.21968 11.7216 2.14512C11.7163 2.11993 11.7111 2.09438 11.7055 2.06916C11.6841 1.9715 11.6617 1.87597 11.6383 1.7825C11.6334 1.76289 11.6282 1.74398 11.6232 1.72475C11.6043 1.65162 11.5854 1.57984 11.5655 1.50987C11.5571 1.48046 11.5483 1.45142 11.5396 1.42238C11.5221 1.36217 11.5036 1.30372 11.485 1.24634C11.4759 1.2187 11.4672 1.19105 11.4577 1.16411C11.4346 1.09655 11.4108 1.03146 11.3863 0.968789C11.3814 0.956197 11.3769 0.942539 11.3719 0.930275C11.3716 0.929578 11.3712 0.928512 11.3709 0.927814C11.3808 0.933105 11.3906 0.938356 11.4001 0.943605ZM6.66285 7.28351C6.66425 7.26112 6.66494 7.23905 6.66634 7.21666C6.67507 7.08086 6.68734 6.94226 6.70276 6.80191L6.71219 6.72C6.72934 6.57788 6.74894 6.43404 6.7724 6.2888C6.77556 6.26887 6.77942 6.24889 6.7829 6.22929C6.80669 6.08647 6.83364 5.943 6.86374 5.79842C6.86653 5.78406 6.86936 5.76971 6.87215 5.75535C6.90365 5.60729 6.93934 5.45856 6.97678 5.30947C6.98413 5.28043 6.99147 5.25135 6.99918 5.22199C7.037 5.07745 7.07756 4.93324 7.121 4.78939C7.1301 4.75999 7.13921 4.73095 7.14831 4.70154C7.19417 4.55454 7.24211 4.40791 7.29322 4.263C7.29847 4.24901 7.30372 4.23499 7.30897 4.221C7.35868 4.08241 7.41118 3.94521 7.4661 3.80974C7.47521 3.78734 7.48394 3.76458 7.49305 3.74218C7.5501 3.60462 7.60961 3.46988 7.67155 3.33687C7.68451 3.30853 7.6978 3.28051 7.71109 3.25217C7.77372 3.12129 7.83815 2.99316 7.90534 2.86822C7.9176 2.84546 7.93019 2.82343 7.94278 2.80067C8.01173 2.67504 8.08277 2.55183 8.15627 2.43387C8.15943 2.42862 8.16259 2.42337 8.1657 2.41812C8.2413 2.29806 8.31972 2.18363 8.39986 2.07301C8.41422 2.05308 8.4282 2.03241 8.44293 2.0128C8.52061 1.90817 8.6008 1.80842 8.68234 1.71355C8.69878 1.69431 8.7156 1.67541 8.73238 1.65687C8.81638 1.56274 8.90177 1.47312 8.98926 1.39088C9.00045 1.38001 9.01235 1.37058 9.02355 1.36008C9.11001 1.28096 9.19819 1.20783 9.28814 1.14134C9.29724 1.1347 9.30635 1.12666 9.31578 1.11997C9.40852 1.05312 9.50339 0.995367 9.59965 0.943564C9.60909 0.938314 9.61889 0.933064 9.62869 0.927814C9.62836 0.928512 9.62799 0.929578 9.62762 0.930275C9.62274 0.942539 9.61819 0.956156 9.61327 0.968789C9.58878 1.03142 9.56495 1.09655 9.54186 1.16411C9.53243 1.19105 9.52365 1.2187 9.51454 1.24634C9.49601 1.30372 9.47747 1.36221 9.45995 1.42238C9.45122 1.45142 9.44244 1.4805 9.43407 1.50987C9.41414 1.57988 9.39523 1.65162 9.37632 1.72475C9.3714 1.74398 9.36619 1.76289 9.36127 1.7825C9.33781 1.87593 9.31541 1.9715 9.29409 2.06916C9.28847 2.09434 9.28322 2.11989 9.27797 2.14512C9.26185 2.21968 9.24647 2.29528 9.23141 2.37193C9.22477 2.40553 9.21845 2.43912 9.21181 2.47308C9.19782 2.54764 9.18416 2.62287 9.17087 2.69883C9.16562 2.72856 9.16037 2.75764 9.15549 2.78738C9.11981 2.99914 9.08687 3.21542 9.05714 3.43383C9.05295 3.46463 9.0491 3.49543 9.04487 3.52624C9.03401 3.60708 9.02387 3.68829 9.01374 3.76913C9.00989 3.8017 9.0057 3.83422 9.00185 3.86679C8.99135 3.95534 8.98122 4.04389 8.97174 4.13208C8.96928 4.15345 8.96686 4.17478 8.9644 4.19614C8.95251 4.30779 8.94094 4.41911 8.93044 4.52968C8.92905 4.54195 8.92798 4.55417 8.92695 4.56643C8.91785 4.662 8.90911 4.7565 8.9007 4.85063C8.89824 4.88106 8.89545 4.91117 8.89299 4.94164C8.88598 5.02286 8.87934 5.10333 8.87306 5.18314C8.87097 5.20833 8.8692 5.23318 8.86711 5.25841C8.8594 5.36025 8.85206 5.46107 8.84505 5.55942C8.84505 5.56049 8.84505 5.56151 8.84468 5.56221C8.83766 5.66475 8.83102 5.76487 8.82507 5.86322C8.82368 5.88422 8.82261 5.90453 8.82122 5.92516C8.81666 6.00112 8.81248 6.07532 8.80826 6.14775C8.80686 6.17121 8.80579 6.1943 8.8044 6.21776C8.80054 6.2902 8.79669 6.36091 8.79353 6.42986C8.79246 6.4463 8.79177 6.46312 8.79107 6.4792C8.78689 6.56426 8.78303 6.64683 8.7795 6.72488V6.72525C8.77634 6.80224 8.77356 6.87434 8.77077 6.94366C8.77007 6.96011 8.7697 6.97516 8.769 6.99091C8.76724 7.04411 8.76515 7.09484 8.76375 7.14279C8.76306 7.15891 8.76269 7.17466 8.76199 7.19041C8.76023 7.24467 8.75883 7.29611 8.75744 7.34266V7.34791C8.75604 7.40147 8.75465 7.44872 8.75358 7.49072V7.49667C8.75252 7.53449 8.75182 7.56632 8.75149 7.59363C8.75149 7.59995 8.75112 7.6045 8.75112 7.61045C8.75079 7.63005 8.75042 7.6465 8.75042 7.65979C8.75005 7.66713 8.75005 7.67275 8.75005 7.678C8.74969 7.6899 8.74969 7.69794 8.74969 7.70007C8.74969 8.27896 8.27858 8.75007 7.69968 8.75007C7.12079 8.75007 6.64968 8.27896 6.64968 7.70007C6.64989 7.56488 6.65514 7.42526 6.66285 7.28351ZM11.5499 16.45C11.5674 16.45 11.5842 16.4462 11.6013 16.4437C11.6108 16.4423 11.6202 16.4423 11.6297 16.4402C11.6591 16.4336 11.6878 16.4234 11.7151 16.4087C11.8288 16.3478 11.8999 16.2291 11.8999 16.1V14H13.6499C13.8431 14 13.9999 14.1568 13.9999 14.35V19.95C13.9999 20.1432 13.8431 20.3 13.6499 20.3H7.3499C7.15672 20.3 6.99992 20.1432 6.99992 19.95V14.35C6.99992 14.1568 7.15672 14 7.3499 14H9.09992V16.1C9.09992 16.2292 9.17096 16.3478 9.28473 16.4087C9.39847 16.4696 9.5371 16.4626 9.64419 16.3912L10.4999 15.8207L11.3557 16.3912C11.3837 16.4097 11.4141 16.4238 11.4456 16.4335C11.4561 16.4367 11.4673 16.437 11.4785 16.4395C11.4995 16.444 11.5202 16.4482 11.5415 16.4489C11.5443 16.4489 11.5471 16.45 11.5499 16.45ZM9.79989 15.4462V13.65H11.1999V15.4462L10.6941 15.1088C10.5765 15.0301 10.4232 15.0301 10.3056 15.1088L9.79989 15.4462ZM10.4999 12.8625L5.68811 9.25366C5.92998 9.13045 6.13892 8.95547 6.2999 8.73916C6.61909 9.16789 7.12555 9.45 7.69989 9.45C8.27423 9.45 8.78069 9.16789 9.09988 8.73916C9.41906 9.16789 9.92552 9.45 10.4999 9.45C11.0742 9.45 11.5807 9.16789 11.8998 8.73916C12.219 9.16789 12.7255 9.45 13.2998 9.45C13.8742 9.45 14.3806 9.16789 14.6998 8.73916C14.8608 8.95547 15.0698 9.13045 15.3116 9.25366L10.4999 12.8625Z" fill="#2A363B"/>
<path id="Vector_2" d="M12.9499 18.9004H12.2499C12.0563 18.9004 11.8999 19.0568 11.8999 19.2504C11.8999 19.4439 12.0563 19.6004 12.2499 19.6004H12.9499C13.1435 19.6004 13.2999 19.4439 13.2999 19.2504C13.2999 19.0568 13.1435 18.9004 12.9499 18.9004Z" fill="#2A363B"/>
<path id="Vector_3" d="M11.1997 18.1996C11.1997 18.3931 11.3561 18.5496 11.5497 18.5496H12.9497C13.1432 18.5496 13.2997 18.3931 13.2997 18.1996C13.2997 18.006 13.1432 17.8496 12.9497 17.8496H11.5497C11.3561 17.8496 11.1997 18.006 11.1997 18.1996Z" fill="#2A363B"/>
</g>
</g>
</g>
</g>
</g>
</svg>
