<svg width="24" height="24" viewBox="0 0 24 24" fill="none" xmlns="http://www.w3.org/2000/svg">
<g id="Layer_1">
<g id="SVGRepo_iconCarrier">
<g id="Group">
<g id="Group_2">
<path id="Vector" d="M2.4 15C1.07442 15 0 16.0744 0 17.4C0 18.7256 1.07442 19.8 2.4 19.8C3.72558 19.8 4.8 18.7256 4.8 17.4C4.8 16.0744 3.72558 15 2.4 15ZM2.4 18.6C1.73841 18.6 1.2 18.0616 1.2 17.4C1.2 16.7384 1.73841 16.2 2.4 16.2C3.06159 16.2 3.6 16.7384 3.6 17.4C3.6 18.0616 3.06159 18.6 2.4 18.6Z" fill="#2A363B"/>
</g>
</g>
<g id="Group_3">
<g id="Group_4">
<path id="Vector_2" d="M19.1998 15C17.8742 15 16.7998 16.0744 16.7998 17.4C16.7998 18.7256 17.8742 19.8 19.1998 19.8C20.5254 19.8 21.5998 18.7256 21.5998 17.4C21.5998 16.0744 20.5254 15 19.1998 15ZM19.1998 18.6C18.5382 18.6 17.9998 18.0616 17.9998 17.4C17.9998 16.7384 18.5382 16.2 19.1998 16.2C19.8614 16.2 20.3998 16.7384 20.3998 17.4C20.3998 18.0616 19.8614 18.6 19.1998 18.6Z" fill="#2A363B"/>
</g>
</g>
<g id="Group_5">
<g id="Group_6">
<path id="Vector_3" d="M19.1999 12.5985C16.7587 12.5985 14.7595 14.4369 14.4607 16.7985H12.7479L13.6815 12.5985H19.1999H23.3999C23.7315 12.5985 23.9999 12.3301 23.9999 11.9985C23.9999 11.667 23.7315 11.3985 23.3999 11.3985H11.3999C11.0683 11.3985 10.7999 11.667 10.7999 11.9985C10.7999 12.3301 11.0683 12.5985 11.3999 12.5985H12.4519L11.5183 16.7985H7.1391C7.13751 16.787 7.13311 16.7761 7.13151 16.7641C7.13353 16.7438 7.14351 16.7258 7.14351 16.7049C7.14351 11.3285 8.93751 6.87052 8.95509 6.82612C9.08029 6.51891 8.93268 6.16852 8.6271 6.04331C8.31871 5.91689 7.9695 6.0645 7.84429 6.3713C7.8359 6.39248 7.80267 6.47489 7.75589 6.5985H6.52467V7.7985H7.34465C6.90225 9.20489 6.29507 11.5425 6.05226 14.3257C5.1779 13.2753 3.87351 12.5985 2.3999 12.5985V13.7985C4.38829 13.7985 5.9999 15.4102 5.9999 17.3985C5.9999 17.6041 5.97271 17.8026 5.93948 17.9985H15.6603C15.6271 17.8026 15.5999 17.6041 15.5999 17.3985C15.5999 15.4102 17.2115 13.7985 19.1999 13.7985C21.1882 13.7985 22.7999 15.4102 22.7999 17.3985C22.7999 17.6041 22.7727 17.8026 22.7394 17.9985H23.9394C23.9642 17.7998 23.9999 17.6041 23.9999 17.3985C23.9999 14.7518 21.8467 12.5985 19.1999 12.5985Z" fill="#2A363B"/>
</g>
</g>
<g id="Group_7">
<g id="Group_8">
<path id="Vector_4" d="M16.7998 4.19922V10.1992H22.7998V4.19922H16.7998ZM21.5998 8.99922H17.9998V5.39922H19.1998V6.59922H20.3998V5.39922H21.5998V8.99922Z" fill="#2A363B"/>
</g>
</g>
</g>
</g>
</svg>
