<svg width="24" height="24" viewBox="0 0 24 24" fill="none" xmlns="http://www.w3.org/2000/svg">
<g id="Layer_1">
<g id="SVGRepo_iconCarrier">
<g id="Group">
<g id="Group_2">
<g id="Group_3">
<path id="Vector" d="M4.80002 17.1992C4.36 17.1992 4 17.5592 4 17.9992C4 18.4392 4.36 18.7992 4.80002 18.7992C5.24003 18.7992 5.60003 18.4392 5.60003 17.9992C5.60003 17.5592 5.24003 17.1992 4.80002 17.1992Z" fill="#2A363B"/>
<path id="Vector_2" d="M19.1999 17.1992C18.7599 17.1992 18.3999 17.5592 18.3999 17.9992C18.3999 18.4392 18.7599 18.7992 19.1999 18.7992C19.6399 18.7992 19.9999 18.4392 19.9999 17.9992C19.9999 17.5592 19.6399 17.1992 19.1999 17.1992Z" fill="#2A363B"/>
<path id="Vector_3" d="M17.9998 14.4004H17.1998C16.9598 14.4004 16.7998 14.5604 16.7998 14.8004C16.7998 15.0404 16.9598 15.2004 17.1998 15.2004H17.9998C18.2398 15.2004 18.3998 15.0404 18.3998 14.8004C18.3998 14.5604 18.2398 14.4004 17.9998 14.4004Z" fill="#2A363B"/>
<path id="Vector_4" d="M23.48 13.5596L21.92 12.9196L20.92 8.91964C20.8 8.35963 20.32 7.99963 19.76 7.99963H14.8C14.56 7.99963 14.4 8.15961 14.4 8.39961V9.19963H14V3.99959C14 3.75959 13.84 3.59961 13.6 3.59961H12H9.6H8.00002C7.76002 3.59961 7.60003 3.75959 7.60003 3.99959V5.19959H6.40003H4.00003H2.4C2.16 5.19959 2.00002 5.35958 2.00002 5.59958V9.19958H1.60003C1.36003 9.19958 1.20005 9.35956 1.20005 9.59956V12.3995H0.399984C0.159984 12.3995 0 12.5595 0 12.7995V17.5995C0 18.0395 0.36 18.3995 0.800016 18.3995H2.43422C2.62617 19.5308 3.61627 20.3996 4.8 20.3996C5.98373 20.3996 6.97383 19.5308 7.16578 18.3995H16.8342C17.0262 19.5308 18.0163 20.3996 19.2 20.3996C20.3837 20.3996 21.3738 19.5308 21.5658 18.3995H23.2C23.64 18.3995 24 18.0395 24 17.5995V14.3195C24 13.9596 23.8 13.6796 23.48 13.5596ZM11.6 4.39962V5.67964L11.04 5.27966C10.96 5.23967 10.88 5.19964 10.8 5.19964C10.72 5.19964 10.64 5.23963 10.56 5.23963L9.99998 5.63961V4.39962H11.6ZM8.4 4.39962H9.20002V6.39964C9.20002 6.55963 9.28003 6.67963 9.44002 6.71966C9.56002 6.79967 9.72 6.79967 9.84 6.71966L10.8 6.07967L11.76 6.71966C11.84 6.75964 11.92 6.79967 12 6.79967C12.08 6.79967 12.12 6.79967 12.2 6.75969C12.32 6.67967 12.4 6.55967 12.4 6.39969V4.39962H13.2V9.19963H8.4V5.59963V4.39962ZM6 5.99961V7.27963L5.43998 6.87964C5.35997 6.83966 5.28 6.79963 5.19998 6.79963C5.11997 6.79963 5.04 6.83961 4.95998 6.83961L4.39997 7.23959V5.99961H6ZM2.79998 5.99961H3.6V7.99963C3.6 8.15961 3.68002 8.27961 3.84 8.31964C3.96 8.39966 4.11998 8.39966 4.23998 8.31964L5.19998 7.67966L6.15998 8.31964C6.24 8.35963 6.31997 8.39966 6.39998 8.39966C6.48 8.39966 6.51998 8.39966 6.6 8.35967C6.72 8.27966 6.80002 8.15966 6.80002 7.99967V5.99961H7.60003V9.19963H2.80003L2.79998 5.99961ZM2.00002 9.99959H2.4H8.00002H13.6H14.4V12.3996H2.00002V9.99959ZM4.8 19.5996C3.92002 19.5996 3.20002 18.8796 3.20002 17.9996C3.20002 17.1196 3.92002 16.3996 4.8 16.3996C5.67998 16.3996 6.39998 17.1196 6.39998 17.9996C6.39998 18.8796 5.67998 19.5996 4.8 19.5996ZM19.2 19.5996C18.32 19.5996 17.6 18.8796 17.6 17.9996C17.6 17.1196 18.32 16.3996 19.2 16.3996C20.08 16.3996 20.8 17.1196 20.8 17.9996C20.8 18.8796 20.08 19.5996 19.2 19.5996ZM23.2 17.5996H21.5658C21.4307 16.8037 20.9005 16.1382 20.1856 15.8134C20.1698 15.8061 20.154 15.7987 20.1379 15.7918C20.1278 15.7875 20.1176 15.7836 20.1075 15.7794C20.0816 15.7686 20.0556 15.7582 20.0292 15.7484C20.022 15.7457 20.0148 15.7433 20.0076 15.7407C19.9783 15.7301 19.9488 15.72 19.919 15.7105C19.9125 15.7085 19.906 15.7065 19.8995 15.7046C19.8691 15.6952 19.8385 15.6864 19.8075 15.6783C19.8007 15.6765 19.7939 15.6748 19.787 15.673C19.7566 15.6653 19.726 15.6582 19.6951 15.6517C19.6873 15.6501 19.6796 15.6484 19.6718 15.6468C19.642 15.6408 19.6119 15.6355 19.5817 15.6306C19.5728 15.6291 19.5638 15.6276 19.5548 15.6262C19.5257 15.6219 19.4963 15.6183 19.4669 15.615C19.4569 15.6139 19.4469 15.6125 19.4369 15.6115C19.4074 15.6086 19.3777 15.6065 19.3479 15.6047C19.338 15.6041 19.3283 15.6031 19.3185 15.6027C19.2792 15.6007 19.2397 15.5996 19.1999 15.5996C19.1601 15.5996 19.1206 15.6007 19.0814 15.6027C19.0715 15.6031 19.0618 15.6041 19.0519 15.6047C19.0221 15.6065 18.9924 15.6086 18.9629 15.6115C18.9529 15.6125 18.9429 15.6139 18.933 15.615C18.9035 15.6183 18.8741 15.6219 18.845 15.6262C18.836 15.6276 18.8271 15.6291 18.8181 15.6306C18.7878 15.6355 18.7578 15.6408 18.728 15.6468C18.7202 15.6484 18.7125 15.65 18.7047 15.6516C18.6738 15.6582 18.6432 15.6653 18.6128 15.673C18.606 15.6747 18.5991 15.6764 18.5923 15.6783C18.5613 15.6864 18.5307 15.6952 18.5003 15.7046C18.4938 15.7065 18.4874 15.7085 18.4809 15.7105C18.451 15.72 18.4215 15.7301 18.3922 15.7407C18.385 15.7433 18.3778 15.7457 18.3706 15.7484C18.3443 15.7582 18.3182 15.7687 18.2923 15.7794C18.2822 15.7836 18.272 15.7875 18.2619 15.7918C18.2459 15.7987 18.2301 15.8062 18.2142 15.8135C17.4993 16.1383 16.9691 16.8038 16.8341 17.5997H7.16578C7.03073 16.8037 6.50053 16.1383 5.78559 15.8135C5.76975 15.8062 5.754 15.7987 5.73792 15.7918C5.72784 15.7875 5.71763 15.7836 5.70745 15.7794C5.68158 15.7687 5.65556 15.7582 5.62922 15.7484C5.62205 15.7458 5.61478 15.7433 5.60756 15.7407C5.57827 15.7301 5.54878 15.72 5.51897 15.7106C5.5125 15.7085 5.50603 15.7066 5.49952 15.7046C5.46914 15.6953 5.43848 15.6865 5.40755 15.6784C5.4007 15.6766 5.39386 15.6748 5.38697 15.6731C5.35659 15.6654 5.32598 15.6583 5.29514 15.6517C5.28736 15.6501 5.27962 15.6484 5.2718 15.6469C5.24198 15.6409 5.21194 15.6355 5.18175 15.6306C5.1728 15.6292 5.16389 15.6276 5.15489 15.6263C5.12578 15.6219 5.09639 15.6183 5.06691 15.615C5.05692 15.6139 5.04698 15.6126 5.03695 15.6116C5.00747 15.6087 4.97775 15.6065 4.94794 15.6047C4.93809 15.6041 4.92839 15.6032 4.9185 15.6027C4.87927 15.6008 4.83975 15.5997 4.79995 15.5997C4.76016 15.5997 4.72064 15.6008 4.68141 15.6027C4.67156 15.6032 4.66181 15.6041 4.65197 15.6047C4.62216 15.6065 4.59244 15.6087 4.56295 15.6116C4.55292 15.6125 4.54298 15.6139 4.533 15.615C4.50352 15.6183 4.47413 15.622 4.44502 15.6263C4.43602 15.6276 4.42711 15.6292 4.41811 15.6306C4.38788 15.6355 4.35787 15.6409 4.32806 15.6468C4.32023 15.6484 4.3125 15.6501 4.30472 15.6517C4.27388 15.6582 4.24327 15.6653 4.21289 15.673C4.20605 15.6748 4.19916 15.6765 4.19231 15.6783C4.16137 15.6865 4.13072 15.6952 4.10034 15.7046C4.09387 15.7066 4.08741 15.7085 4.08094 15.7106C4.05108 15.72 4.02155 15.7302 3.99225 15.7408C3.98508 15.7433 3.97781 15.7458 3.97069 15.7484C3.9443 15.7583 3.91823 15.7687 3.89231 15.7795C3.88223 15.7836 3.87202 15.7875 3.86198 15.7918C3.84591 15.7988 3.83011 15.8062 3.81422 15.8135C3.09938 16.1384 2.56917 16.8038 2.43417 17.5997H0.800016V13.1996H1.60003H14.8C15.04 13.1996 15.2 13.0396 15.2 12.7996V9.59961V8.79959H19.76C19.96 8.79959 20.12 8.95958 20.16 9.11961L21.0712 12.7996H17.6V10.3996C17.6 10.1596 17.44 9.99964 17.2 9.99964C16.96 9.99964 16.8 10.1596 16.8 10.3996V13.1996C16.8 13.4396 16.96 13.5996 17.2 13.5996H21.44L23.2 14.2796L23.2 17.5996Z" fill="#2A363B"/>
</g>
</g>
</g>
</g>
</g>
</svg>
